# xmcd
#
# Track frame offsets: 
#        150
#        16277
#        32760
#        61412
#
# Disc length: 1221 seconds
#
# Revision: 0
# Processed by: cddbd v1.5.2PL0 Copyright (c) Steve Scherf et al.
# Submitted via: ExactAudioCopyFreeDBPlugin 1.0
#
DISCID=2a04c304
DTITLE=Sonny Landreth - Exit 103A
DYEAR=1994
DGENRE=Blues
TTITLE0=Shooting For The Moon
TTITLE1=South Of I-10
TTITLE2=Congo Square
TTITLE3=Back To Bayou Teche (Live in Amsterdam At The Club Paradiso - 
TTITLE3=November 24, 1992)
EXTD=
EXTT0=
EXTT1=
EXTT2=
EXTT3=
PLAYORDER=
